<?xml version="1.0" encoding="iso-8859-1"?>
<!-- Generator: Adobe Illustrator 19.0.0, SVG Export Plug-In . SVG Version: 6.00 Build 0)  -->
<svg version="1.1" id="Capa_1" xmlns="http://www.w3.org/2000/svg" xmlns:xlink="http://www.w3.org/1999/xlink" x="0px" y="0px"
	 viewBox="0 0 512 512" style="enable-background:new 0 0 512 512;" xml:space="preserve">
<path style="fill:#F2F2F2;" d="M256,488.533l70.4-202.667c-17.067,23.467-43.733,35.2-70.4,35.2s-52.267-11.733-70.4-35.2l0,0
	L256,488.533z"/>
<g>
	<path style="fill:#F8B64C;" d="M185.6,285.867C186.667,286.933,186.667,286.933,185.6,285.867L185.6,285.867z"/>
	<path style="fill:#F8B64C;" d="M326.4,285.867C325.333,286.933,325.333,286.933,326.4,285.867L326.4,285.867z"/>
	
		<ellipse transform="matrix(-0.9962 0.0872 -0.0872 -0.9962 339.1268 290.3182)" style="fill:#F8B64C;" cx="163.222" cy="152.566" rx="22.4" ry="33.07"/>
	
		<ellipse transform="matrix(-0.9962 -0.0872 0.0872 -0.9962 682.9564 334.9489)" style="fill:#F8B64C;" cx="348.794" cy="152.558" rx="22.4" ry="33.07"/>
</g>
<path style="fill:#FFD15C;" d="M256,0c-57.6,0-103.467,46.933-103.467,103.467V134.4c0,7.467,0,16,1.067,23.467l0,0
	c5.333,40.533,22.4,77.867,50.133,107.733l9.6,10.667c8.533,9.6,21.333,16,35.2,16h14.933c13.867,0,26.667-5.333,35.2-16l9.6-10.667
	c27.733-29.867,44.8-68.267,50.133-107.733c1.067-7.467,1.067-16,1.067-23.467v-30.933C359.467,46.933,313.6,0,256,0L256,0z"/>
<polygon style="fill:#FF7058;" points="278.4,424.533 283.733,512 228.267,512 233.6,423.467 233.6,423.467 237.867,374.4 
	220.8,343.467 256,322.133 291.2,343.467 274.133,374.4 278.4,423.467 "/>
<g>
	<polygon style="fill:#ACB3BA;" points="332.8,357.333 359.467,369.067 296.533,512 254.933,512 256,489.6 278.4,424.533 
		326.4,285.867 354.133,295.467 365.867,342.4 	"/>
	<polygon style="fill:#ACB3BA;" points="257.067,512 215.467,512 153.6,369.067 179.2,357.333 146.133,342.4 157.867,295.467 
		183.467,286.933 185.6,285.867 233.6,423.467 256,489.6 	"/>
</g>
<g>
	<path style="fill:#CDD6E0;" d="M512,420.267V512H296.533L358.4,369.067l-25.6-11.733l33.067-14.933l-11.733-46.933L448,329.6
		C486.4,343.467,512,379.733,512,420.267z"/>
	<path style="fill:#CDD6E0;" d="M153.6,369.067L215.467,512H0v-91.733c0-40.533,25.6-76.8,64-90.667l93.867-34.133L146.133,342.4
		l33.067,14.933L153.6,369.067z"/>
</g>
<polygon style="fill:#F1543F;" points="220.8,343.467 229.333,358.4 256,336 282.667,358.4 291.2,343.467 256,322.133 "/>
<polygon style="fill:#CDD6E0;" points="326.4,285.867 300.8,359.467 256,322.133 211.2,359.467 185.6,285.867 256,315.733 "/>
<path style="fill:#F8B64C;" d="M308.267,266.667l-9.6,10.667c-8.533,9.6-21.333,16-35.2,16h-14.933c-13.867,0-26.667-5.333-35.2-16
	l-9.6-10.667c-6.4-7.467-11.733-14.933-17.067-22.4V284.8l70.4,30.933l70.4-30.933v-39.467
	C321.067,252.8,314.667,260.267,308.267,266.667z"/>
<g>
	<path style="opacity:0.1;fill:#40596B;enable-background:new    ;" d="M308.267,266.667l-9.6,10.667c-8.533,9.6-21.333,16-35.2,16
		h-14.933c-12.8,0-24.533-5.333-33.067-13.867l0,0L256,315.733l70.4-30.933v-39.467C321.067,252.8,314.667,260.267,308.267,266.667z
		"/>
	<path style="fill:#40596B;" d="M359.467,129.067L344.533,195.2L320,221.867c-3.2-7.467-8.533-13.867-16-19.2
		c-28.8-20.267-67.2-20.267-96,0c-7.467,5.333-13.867,11.733-16,19.2l-23.467-25.6l-16-66.133l2.133,39.467
		c6.4,38.4,29.867,104.533,64,121.6c11.733,5.333,24.533,9.6,37.333,9.6c13.867,0,26.667-3.2,38.4-9.6
		c35.2-17.067,57.6-83.2,64-121.6L359.467,129.067z M296.533,249.6c0,0-8.533,14.933-24.533,0c0,0-8.533-9.6-16-9.6
		c-8.533,1.067-16,9.6-16,9.6c-14.933,14.933-24.533,0-24.533,0c-3.2-7.467-4.267-12.8-3.2-18.133
		c2.133-8.533,9.6-13.867,18.133-12.8c16,1.067,24.533-8.533,24.533-8.533s8.533,10.667,24.533,8.533
		c8.533-1.067,17.067,4.267,18.133,12.8C300.8,236.8,299.733,242.133,296.533,249.6z"/>
	<path style="fill:#40596B;" d="M314.667,101.333h-24.533c-12.8,0-22.4,7.467-26.667,19.2c-2.133,0-5.333-1.067-7.467-1.067
		c-2.133,0-4.267,0-6.4,1.067c-4.267-10.667-13.867-19.2-26.667-19.2H198.4c-16,0-27.733,12.8-27.733,27.733
		c0,16,12.8,27.733,27.733,27.733h24.533c16,0,27.733-12.8,27.733-27.733l0,0c0-1.067,0-1.067,0-2.133c3.2,0,7.467,0,10.667,0
		c0,1.067,0,1.067,0,2.133c0,16,12.8,27.733,27.733,27.733H313.6c16,0,27.733-12.8,27.733-27.733l0,0
		C342.4,113.067,329.6,101.333,314.667,101.333z M222.933,149.333H198.4c-10.667,0-20.267-8.533-20.267-20.267
		c0-11.733,8.533-20.267,20.267-20.267h24.533c10.667,0,20.267,8.533,20.267,20.267S233.6,149.333,222.933,149.333z
		 M314.667,149.333h-24.533c-10.667,0-20.267-8.533-20.267-20.267c0-11.733,8.533-20.267,20.267-20.267h24.533
		c10.667,0,20.267,8.533,20.267,20.267C334.933,140.8,325.333,149.333,314.667,149.333z"/>
</g>
<g>
</g>
<g>
</g>
<g>
</g>
<g>
</g>
<g>
</g>
<g>
</g>
<g>
</g>
<g>
</g>
<g>
</g>
<g>
</g>
<g>
</g>
<g>
</g>
<g>
</g>
<g>
</g>
<g>
</g>
</svg>
