<?xml version="1.0" encoding="iso-8859-1"?>
<!-- Generator: Adobe Illustrator 19.0.0, SVG Export Plug-In . SVG Version: 6.00 Build 0)  -->
<svg version="1.1" id="Capa_1" xmlns="http://www.w3.org/2000/svg" xmlns:xlink="http://www.w3.org/1999/xlink" x="0px" y="0px"
	 viewBox="0 0 512 512" style="enable-background:new 0 0 512 512;" xml:space="preserve">
<rect x="192.952" y="457.331" style="fill:#40596B;" width="126.1" height="54.67"/>
<rect x="226.083" y="386.975" transform="matrix(-1 -0.0031 0.0031 -1 509.6751 816.4161)" style="fill:#ACB3BA;" width="58.774" height="41.676"/>
<path style="fill:#4CDBC4;" d="M402.4,354.914c81.215-81.215,81.215-212.654,1.069-293.868
	C322.254-20.169,190.815-20.169,109.6,59.977c-81.215,81.215-81.215,212.655-1.069,293.868S321.185,435.06,402.4,354.914z"/>
<path style="fill:#F2F2F2;" d="M140.59,321.788c-63.048-64.117-63.048-166.704,1.069-229.752s166.704-63.048,229.752,1.069
	s63.048,166.704-1.069,229.752C307.294,385.904,203.638,384.836,140.59,321.788z"/>
<path style="fill:#334A5E;" d="M317.98,458.57H192.952v-9.618c0-11.754,9.618-21.372,21.372-21.372h83.352
	c11.754,0,21.372,9.617,21.372,21.372v9.618H317.98z"/>
<g>
	<polygon style="fill:#3DC9AE;" points="189.746,265.15 130.973,207.445 189.746,148.672 206.844,165.769 166.237,207.445 
		206.844,248.053 	"/>
	<polygon style="fill:#3DC9AE;" points="322.254,265.15 381.028,207.445 322.254,148.672 305.156,165.769 345.764,207.445 
		305.156,248.053 	"/>
	<polygon style="fill:#3DC9AE;" points="262.412,135.849 223.942,277.974 249.589,277.974 288.059,135.849 	"/>
</g>
<path style="fill:#E4EAEF;" d="M141.658,112.339c64.117-63.048,166.704-63.048,229.752,1.069
	c28.853,28.853,43.813,66.254,47.019,103.656c3.206-44.882-12.823-90.833-47.019-125.028
	c-63.048-64.117-166.704-64.117-229.752-1.069c-34.195,34.195-50.225,81.215-47.019,126.097
	C96.776,179.662,111.738,142.261,141.658,112.339z"/>
<g>
</g>
<g>
</g>
<g>
</g>
<g>
</g>
<g>
</g>
<g>
</g>
<g>
</g>
<g>
</g>
<g>
</g>
<g>
</g>
<g>
</g>
<g>
</g>
<g>
</g>
<g>
</g>
<g>
</g>
</svg>
