<?xml version="1.0" encoding="iso-8859-1"?>
<!-- Generator: Adobe Illustrator 19.0.0, SVG Export Plug-In . SVG Version: 6.00 Build 0)  -->
<svg version="1.1" id="Capa_1" xmlns="http://www.w3.org/2000/svg" xmlns:xlink="http://www.w3.org/1999/xlink" x="0px" y="0px"
	 viewBox="0 0 512 512" style="enable-background:new 0 0 512 512;" xml:space="preserve">
<path style="fill:#F2F2F2;" d="M493.867,150.4v340.267c0,11.733-9.6,21.333-21.333,21.333h-432C28.8,512,19.2,502.4,19.2,490.667
	V150.4c0-11.733,9.6-21.333,21.333-21.333h432C484.267,129.067,493.867,138.667,493.867,150.4z"/>
<path style="fill:#ACB3BA;" d="M57.6,512V369.067c0-44.8,36.267-81.067,81.067-81.067l0,0c44.8,0,81.067,36.267,81.067,81.067V512
	H57.6z"/>
<polygon style="fill:#F2705B;" points="18.133,0 0,129.067 73.6,129.067 86.4,0 "/>
<polygon style="fill:#F2F2F2;" points="86.4,0 73.6,129.067 146.133,129.067 153.6,0 "/>
<polygon style="fill:#F2705B;" points="153.6,0 146.133,129.067 219.733,129.067 221.867,0 "/>
<polygon style="fill:#F2F2F2;" points="221.867,0 219.733,129.067 292.267,129.067 290.133,0 "/>
<polygon style="fill:#F2705B;" points="290.133,0 292.267,129.067 365.867,129.067 358.4,0 "/>
<polygon style="fill:#F2F2F2;" points="358.4,0 365.867,129.067 438.4,129.067 425.6,0 "/>
<polygon style="fill:#F2705B;" points="425.6,0 438.4,129.067 512,129.067 493.867,0 "/>
<path style="fill:#E4EAEF;" d="M493.867,215.467v-72.533h-54.4l0,0h-73.6l0,0h-73.6l0,0h-73.6l0,0h-73.6l0,0H73.6l0,0H19.2v72.533
	c5.333,3.2,11.733,5.333,18.133,5.333c20.267,0,36.267-16,36.267-36.267c0,20.267,16,36.267,36.267,36.267s36.267-16,36.267-36.267
	c0,20.267,16,36.267,36.267,36.267s36.267-16,36.267-36.267c0,20.267,16,36.267,36.267,36.267s36.267-16,36.267-36.267
	c0,20.267,16,36.267,36.267,36.267s36.267-16,36.267-36.267c0,20.267,16,36.267,36.267,36.267s36.267-16,36.267-36.267
	c0,20.267,16,36.267,36.267,36.267C482.133,220.8,488.533,218.667,493.867,215.467z"/>
<path style="fill:#F05540;" d="M0,129.067V169.6c0,20.267,16,36.267,36.267,36.267s36.267-16,36.267-36.267v-40.533H0L0,129.067z"/>
<path style="fill:#CDD5DF;" d="M73.6,129.067V169.6c0,20.267,16,36.267,36.267,36.267s36.267-16,36.267-36.267v-40.533H73.6
	L73.6,129.067z"/>
<path style="fill:#F05540;" d="M146.133,129.067V169.6c0,20.267,16,36.267,36.267,36.267s36.267-16,36.267-36.267v-40.533H146.133
	L146.133,129.067z"/>
<path style="fill:#CDD5DF;" d="M219.733,129.067V169.6c0,20.267,16,36.267,36.267,36.267s36.267-16,36.267-36.267v-40.533H219.733
	L219.733,129.067z"/>
<path style="fill:#F05540;" d="M292.267,129.067V169.6c0,20.267,16,36.267,36.267,36.267s36.267-16,36.267-36.267v-40.533H292.267
	L292.267,129.067z"/>
<path style="fill:#CDD5DF;" d="M365.867,129.067V169.6c0,20.267,16,36.267,36.267,36.267s36.267-16,36.267-36.267v-40.533H365.867
	L365.867,129.067z"/>
<path style="fill:#F05540;" d="M438.4,129.067V169.6c0,20.267,16,36.267,36.267,36.267s36.267-16,36.267-36.267v-40.533H438.4
	L438.4,129.067z"/>
<rect x="280.53" y="343.47" style="fill:#54C0EB;" width="148.27" height="99.2"/>
<rect x="270.93" y="443.73" style="fill:#CDD6E0;" width="168.53" height="11.733"/>
<circle style="fill:#40596B;" cx="199.47" cy="417.07" r="9.6"/>
<g>
</g>
<g>
</g>
<g>
</g>
<g>
</g>
<g>
</g>
<g>
</g>
<g>
</g>
<g>
</g>
<g>
</g>
<g>
</g>
<g>
</g>
<g>
</g>
<g>
</g>
<g>
</g>
<g>
</g>
</svg>
